<svg width="25" height="24" viewBox="0 0 25 24" fill="none" xmlns="http://www.w3.org/2000/svg">
<g clip-path="url(#clip0_6_184)">
<path d="M20.6972 12.707C20.8847 12.5194 20.99 12.2651 20.99 12C20.99 11.7348 20.8847 11.4805 20.6972 11.293L15.0402 5.63598C14.948 5.54047 14.8376 5.46428 14.7156 5.41188C14.5936 5.35947 14.4624 5.33188 14.3296 5.33073C14.1968 5.32957 14.0651 5.35487 13.9422 5.40516C13.8194 5.45544 13.7077 5.52969 13.6138 5.62358C13.5199 5.71747 13.4457 5.82913 13.3954 5.95202C13.3451 6.07492 13.3198 6.2066 13.321 6.33938C13.3221 6.47216 13.3497 6.60338 13.4021 6.72538C13.4545 6.84739 13.5307 6.95773 13.6262 7.04998L17.5762 11H4.3332C4.06799 11 3.81363 11.1053 3.6261 11.2929C3.43856 11.4804 3.3332 11.7348 3.3332 12C3.3332 12.2652 3.43856 12.5195 3.6261 12.7071C3.81363 12.8946 4.06799 13 4.3332 13H17.5762L13.6262 16.95C13.444 17.1386 13.3433 17.3912 13.3455 17.6534C13.3478 17.9156 13.453 18.1664 13.6384 18.3518C13.8238 18.5372 14.0746 18.6424 14.3368 18.6447C14.599 18.6469 14.8516 18.5461 15.0402 18.364L20.6972 12.707Z" fill="#1E1E1E"/>
</g>
<defs>
<clipPath id="clip0_6_184">
<rect width="24" height="24" fill="white" transform="matrix(0 1 -1 0 24.3333 0)"/>
</clipPath>
</defs>
</svg>
